# xmcd
#
# Track frame offsets: 
#        150
#        9452
#        19451
#        37484
#        51040
#        63403
#        77358
#
# Disc length: 1256 seconds
#
# Revision: 3
# Processed by: cddbd v1.5.1PL0 Copyright (c) Steve Scherf et al.
# Submitted via: ExactAudioCopy v0.95a5
#
DISCID=5504e607
DTITLE=Kohelet 3 - Kohelet 3
DYEAR=1996
DGENRE=Ethnic
TTITLE0=Joj Mamo (Roma)
TTITLE1=Nigun Atik (Israel)
TTITLE2=Ruta (Ukraine)
TTITLE3=St. Georg Day (Roma)
TTITLE4=Easter Hymn (Ukraine)
TTITLE5=Bandura (Ukraine)
TTITLE6=Hora (Israel)
EXTD=
EXTT0=Roma
EXTT1=Israel
EXTT2=Ukraine
EXTT3=Roma
EXTT4=Ukraine
EXTT5=Ukraine
EXTT6=Israel
PLAYORDER=
